#!OML:ASF E:\Mandelcareful walks\Project 1\Capture day 1\Session 1\Subject1.ASF
:FULLY-SPECIFIED
:DEGREES
1045
root -7.42383 15.4457 0.101975 -701.327 41.6894 -715.484
lowerback 23.8468 -0.845487 4.50848
upperback 7.53433 0.0405642 -2.15734
thorax -4.96353 0.159371 -4.95545
lowerneck -27.2235 12.3028 7.8194
upperneck 20.0762 20.7763 -21.3746
head 15.0635 7.13605 -5.1676
rclavicle 7.41467e-014 -1.39149e-014
rhumerus -21.4579 10.806 -92.7524
rradius 30.1323
rwrist -51.758
rhand 2.64999 -42.4858
rfingers 7.12502
rthumb 28.126 -70.3965
lclavicle 7.41467e-014 -1.39149e-014
lhumerus -13.6742 -81.3863 108.259
lradius 52.8353
lwrist 6.6887
lhand -19.7261 -6.77674
lfingers 7.12502
lthumb 6.60425 23.1003
rfemur -40.4741 -9.86294 10.5343
rtibia 53.8338
rfoot -24.9921 -13.202
rtoes -20.3867
lfemur -54.7182 16.3627 -24.2646
ltibia 66.375
lfoot -15.1307 1.95563
ltoes -12.7898
1046
root -7.40932 15.4942 0.167276 -700.876 42.3653 -715.469
lowerback 24.1969 -0.816036 4.20157
upperback 7.45392 0.0336331 -2.04723
thorax -5.23148 0.146504 -4.66224
lowerneck -26.9882 12.4153 7.8991
upperneck 19.4514 20.9336 -21.8765
head 14.8775 7.21752 -5.31829
rclavicle -3.85642e-014 -1.59028e-014
rhumerus -21.3916 10.2651 -92.6276
rradius 29.7668
rwrist -51.8624
rhand 2.49315 -42.7291
rfingers 7.12502
rthumb 27.9761 -70.6643
lclavicle -3.85642e-014 -1.59028e-014
lhumerus -13.3359 -81.2961 108.013
lradius 52.6678
lwrist 5.86503
lhand -18.1886 -6.65494
lfingers 7.12502
lthumb 8.0883 23.1703
rfemur -40.1018 -10.1179 10.8845
rtibia 53.1977
rfoot -25.0983 -13.5517
rtoes -19.4871
lfemur -55.351 16.3013 -23.9074
ltibia 63.3814
lfoot -14.8618 2.72
ltoes -10.6531
1047
root -7.33082 15.5557 0.230805 -700.747 42.5067 -715.579
lowerback 24.4 -0.84305 3.92268
upperback 7.48097 -0.0431125 -1.88101
thorax -5.31446 0.107434 -4.29974
lowerneck -26.8189 12.5593 7.49895
upperneck 19.116 21.2847 -22.0454
head 14.7477 7.35714 -5.21328
rclavicle 4.09496e-014 -2.38542e-014
rhumerus -21.4605 10.4763 -92.3843
rradius 29.2957
rwrist -51.5481
rhand 3.77189 -41.3937
rfingers 7.12502
rthumb 29.1979 -69.1232
lclavicle 4.09496e-014 -2.38542e-014
lhumerus -13.0233 -80.5636 107.927
lradius 52.4917
lwrist 5.55832
lhand -18.0892 -6.77202
lfingers 7.12502
lthumb 8.18428 23.0495
rfemur -39.4155 -10.245 10.8731
rtibia 52.5411
rfoot -25.5611 -12.97
rtoes -17.419
lfemur -55.4172 16.2703 -23.6502
ltibia 60.2655
lfoot -15.2237 3.87053
ltoes -9.48668
1048
root -7.25895 15.5846 0.285043 -700.46 42.8268 -715.584
lowerback 24.673 -0.624107 4.12997
upperback 7.53322 0.280093 -2.17938
thorax -5.35367 0.269234 -4.84438
lowerneck -27.4155 12.3828 7.87197
upperneck 19.583 20.8335 -21.6529
head 14.9561 7.15767 -5.24365
rclavicle -3.598e-014 2.18663e-014
rhumerus -21.2431 8.51836 -92.4325
rradius 28.5623
rwrist -50.3735
rhand 5.43269 -39.4197
rfingers 7.12502
rthumb 30.7826 -66.8624
lclavicle -3.598e-014 2.18663e-014
lhumerus -14.4475 -81.9548 109.053
lradius 52.6332
lwrist 5.87834
lhand -18.4595 -6.54705
lfingers 7.12502
lthumb 7.82685 23.2881
rfemur -38.8966 -10.5828 10.9616
rtibia 51.6925
rfoot -25.0829 -13.7558
rtoes -20.3733
lfemur -55.7157 16.0242 -23.3842
ltibia 57.2482
lfoot -15.8026 5.02474
ltoes -6.8062
1049
root -7.2065 15.6197 0.330819 -699.839 43.3537 -715.579
lowerback 24.761 -0.580414 3.91092
upperback 7.42815 0.285361 -2.20434
thorax -5.51533 0.264754 -4.7502
lowerneck -27.665 12.3302 7.91843
upperneck 19.7754 20.6678 -21.3639
head 15.0091 7.0903 -5.18029
rclavicle -1.25234e-014 5.12864e-014
rhumerus -21.2411 7.82861 -92.4549
rradius 28.1645
rwrist -49.9794
rhand 6.55682 -38.3526
rfingers 7.12502
rthumb 31.8537 -65.5877
lclavicle -1.25234e-014 5.12864e-014
lhumerus -15.4687 -82.4985 110.041
lradius 52.7232
lwrist 6.71403
lhand -18.5629 -5.96565
lfingers 7.12502
lthumb 7.72705 23.8732
rfemur -38.7485 -10.9911 11.2005
rtibia 50.9571
rfoot -24.9612 -14.0702
rtoes -21.6884
lfemur -56.4785 15.7393 -23.1258
ltibia 54.3083
lfoot -14.9716 6.03536
ltoes -7.77202
1050
root -7.10332 15.6656 0.380958 -699.847 43.4386 -716.007
lowerback 24.9381 -0.387373 4.0061
upperback 7.36655 0.555286 -2.26097
thorax -5.63899 0.389886 -4.95084
lowerneck -27.3982 12.2491 8.06263
upperneck 19.6454 20.4353 -21.3006
head 14.8584 7.03892 -5.24066
rclavicle -3.18055e-014 3.33958e-014
rhumerus -21.4565 6.94423 -92.4121
rradius 27.9453
rwrist -50.0687
rhand 7.11376 -37.9955
rfingers 7.12502
rthumb 32.384 -65.1237
lclavicle -3.18055e-014 3.33958e-014
lhumerus -17.8938 -82.3108 112.728
lradius 52.3031
lwrist 6.03305
lhand -16.716 -6.75763
lfingers 7.12502
lthumb 9.50933 23.0078
rfemur -38.1312 -11.1147 11.4017
rtibia 50.1588
rfoot -25.1191 -13.837
rtoes -19.8868
lfemur -56.6566 15.5431 -22.46
ltibia 51.6033
lfoot -14.8016 7.16369
ltoes -8.1349
1051
root -6.98908 15.6984 0.424752 -700.013 43.5146 -716.605
lowerback 25.1895 -0.0920798 4.38152
upperback 7.41604 1.0206 -2.45215
thorax -5.64115 0.617907 -5.52148
lowerneck -27.3893 12.1679 8.57079
upperneck 19.3528 20.0657 -21.4227
head 14.7404 6.92816 -5.45955
rclavicle 2.96189e-014 -5.96354e-015
rhumerus -21.2602 4.94112 -92.3588
rradius 27.4144
rwrist -49.6338
rhand 8.11233 -36.9833
rfingers 7.12502
rthumb 33.3338 -63.9125
lclavicle 2.96189e-014 -5.96354e-015
lhumerus -20.5723 -82.7998 115.58
lradius 51.9764
lwrist 5.08175
lhand -15.616 -6.90408
lfingers 7.12502
lthumb 10.5706 22.8101
rfemur -37.5673 -11.1596 11.6725
rtibia 49.5833
rfoot -25.2146 -13.8697
rtoes -18.4039
lfemur -56.8363 15.5687 -21.7868
ltibia 49.1851
lfoot -14.593 8.12931
ltoes -7.63301
1052
root -6.86251 15.7158 0.458317 -699.895 43.5091 -716.675
lowerback 25.4454 0.185982 4.61119
upperback 7.64111 1.41844 -2.9055
thorax -5.44498 0.831791 -6.27857
lowerneck -28.0339 12.082 9.14266
upperneck 19.394 19.6091 -21.2609
head 14.8342 6.7456 -5.59855
rclavicle 5.00937e-014 2.28602e-014
rhumerus -20.9232 2.94833 -92.4993
rradius 27.1101
rwrist -49.3313
rhand 9.0859 -35.8056
rfingers 7.12502
rthumb 34.2588 -62.5315
lclavicle 5.00937e-014 2.28602e-014
lhumerus -24.8886 -84.5143 119.741
lradius 52.0682
lwrist 6.27113
lhand -17.4195 -6.32027
lfingers 7.12502
lthumb 8.83051 23.475
rfemur -36.9844 -11.3951 11.4481
rtibia 49.0538
rfoot -25.1859 -13.8036
rtoes -19.4691
lfemur -56.9276 15.5807 -21.6495
ltibia 47.0647
lfoot -14.4579 9.33399
ltoes -8.05829
1053
root -6.74165 15.7112 0.48409 -699.101 43.5113 -716.434
lowerback 25.0282 -0.138622 3.2066
upperback 7.56954 0.688874 -2.32007
thorax -5.45888 0.467207 -4.58984
lowerneck -27.2312 12.4713 7.7313
upperneck 18.4404 20.6275 -21.4723
head 14.3318 7.17507 -5.14868
rclavicle -6.75868e-015 5.96354e-016
rhumerus -21.3331 6.16381 -92.0562
rradius 27.2901
rwrist -50.2925
rhand 9.72004 -34.8873
rfingers 7.12502
rthumb 34.8608 -61.4758
lclavicle -6.75868e-015 5.96354e-016
lhumerus -18.1243 -81.654 113.936
lradius 51.5316
lwrist 5.59679
lhand -17.0874 -6.54294
lfingers 7.12502
lthumb 9.15102 23.2385
rfemur -37.0536 -11.7589 11.0761
rtibia 48.645
rfoot -25.2261 -13.6561
rtoes -20.5562
lfemur -57.6277 15.4401 -21.7735
ltibia 45.2817
lfoot -14.4492 10.5694
ltoes -7.52771
1054
root -6.59429 15.7135 0.511309 -699.02 43.2812 -716.436
lowerback 25.3335 0.105236 2.78873
upperback 7.65169 0.901371 -2.46128
thorax -5.50349 0.573289 -4.57233
lowerneck -27.097 12.474 7.83902
upperneck 18.1089 20.544 -21.5959
head 14.1846 7.16764 -5.22626
rclavicle 1.76918e-014 2.92213e-014
rhumerus -21.5246 5.77531 -91.9522
rradius 27.217
rwrist -50.2039
rhand 9.43371 -35.3449
rfingers 7.12502
rthumb 34.589 -61.996
lclavicle 1.76918e-014 2.92213e-014
lhumerus -19.5533 -81.9127 115.674
lradius 51.506
lwrist 6.16635
lhand -16.9405 -5.97612
lfingers 7.12502
lthumb 9.29279 23.7991
rfemur -36.4932 -11.8348 10.5944
rtibia 48.3489
rfoot -25.4016 -13.3515
rtoes -20.6405
lfemur -57.5052 15.0929 -21.2978
ltibia 43.8946
lfoot -14.7939 12.0713
ltoes -6.31572
1055
root -6.4198 15.7131 0.533042 -699.588 42.9388 -716.81
lowerback 26.1292 0.269861 2.59081
upperback 7.75847 1.07977 -2.52961
thorax -5.76237 0.659051 -4.60927
lowerneck -26.757 12.5445 7.89736
upperneck 17.7695 20.5835 -21.7176
head 14.0107 7.22473 -5.26754
rclavicle -4.96962e-014 2.64384e-014
rhumerus -21.758 5.53142 -91.7716
rradius 27.0332
rwrist -49.8969
rhand 6.89757 -39.5402
rfingers 7.12502
rthumb 32.1782 -66.7103
lclavicle -4.96962e-014 2.64384e-014
lhumerus -20.2679 -81.5156 116.861
lradius 51.0282
lwrist 6.399
lhand -16.276 -7.10093
lfingers 7.12502
lthumb 9.9339 22.6447
rfemur -35.4892 -11.7366 10.1768
rtibia 48.0636
rfoot -25.4786 -12.8956
rtoes -19.2118
lfemur -56.8839 14.5616 -20.341
ltibia 43.1553
lfoot -15.0124 13.6924
ltoes -5.3137
